<?xml version="1.0" standalone="no"?>
<!DOCTYPE svg PUBLIC "-//W3C//DTD SVG 20010904//EN"
 "http://www.w3.org/TR/2001/REC-SVG-20010904/DTD/svg10.dtd">
<svg version="1.0" xmlns="http://www.w3.org/2000/svg"
 width="200.000000pt" height="200.000000pt" viewBox="0 0 200.000000 200.000000"
 preserveAspectRatio="xMidYMid meet">
<metadata>
Created by potrace 1.14, written by Peter Selinger 2001-2017
</metadata>
<g transform="translate(0.000000,200.000000) scale(0.100000,-0.100000)"
fill="#000000" stroke="none">
<path d="M242 1829 c-46 -14 -118 -88 -131 -135 -31 -110 19 -219 119 -262 43
-18 123 -17 161 2 l29 15 120 -137 c66 -74 119 -137 117 -138 -1 -1 -37 -18
-81 -37 l-79 -35 -31 36 c-43 49 -97 71 -166 68 -184 -8 -266 -229 -134 -359
82 -82 220 -78 300 9 l33 37 80 -34 c45 -19 80 -37 78 -41 -1 -3 -53 -65 -115
-136 l-113 -130 -36 14 c-77 33 -181 10 -239 -53 -85 -92 -63 -249 46 -318
143 -90 328 18 319 188 l-3 51 139 33 c228 54 305 70 305 64 0 -15 49 -60 87
-80 111 -56 260 8 294 126 11 41 9 110 -5 144 -6 12 16 31 88 78 l96 62 36
-27 c19 -15 56 -33 81 -39 205 -52 351 204 199 350 -81 79 -199 85 -279 16
l-32 -29 -98 64 c-88 58 -97 67 -90 87 4 12 8 51 8 87 0 56 -5 72 -30 108 -44
63 -105 91 -187 88 -55 -2 -72 -7 -104 -31 -22 -16 -47 -39 -57 -52 -10 -12
-24 -20 -31 -17 -7 3 -105 27 -217 53 -155 36 -203 51 -200 62 8 31 0 93 -17
132 -44 99 -152 147 -260 116z m146 -53 c120 -63 118 -237 -4 -296 -137 -67
-283 64 -229 206 36 94 144 136 233 90z m422 -323 c63 -14 116 -26 118 -28 2
-2 4 -32 5 -67 l2 -64 -117 -51 -116 -51 -44 51 c-23 28 -78 91 -121 139 l-78
89 17 28 17 28 101 -24 c55 -13 153 -36 216 -50z m424 43 c55 -42 71 -72 71
-136 0 -47 -5 -63 -29 -95 -81 -106 -234 -89 -288 33 -36 81 1 174 86 216 45
23 117 15 160 -18z m-244 -291 c0 -6 -89 -111 -136 -162 -8 -8 -24 3 -63 48
-29 32 -50 63 -47 68 3 5 34 20 68 34 35 14 81 34 102 45 l40 20 18 -23 c10
-13 18 -26 18 -30z m504 -124 c-13 -30 -16 -121 -6 -151 11 -29 10 -30 -86
-94 l-97 -64 -25 24 c-56 52 -147 68 -217 39 -20 -8 -37 -14 -37 -13 -1 2 -34
40 -74 84 -40 45 -72 86 -72 91 0 6 21 34 48 64 26 30 59 69 74 87 26 31 27
31 62 17 69 -29 168 -10 221 42 20 20 20 19 118 -45 74 -50 96 -69 91 -81z
m-1105 65 c117 -61 115 -238 -3 -295 -75 -37 -146 -22 -202 41 -52 59 -53 148
-3 212 47 60 137 78 208 42z m1393 -11 c110 -73 93 -239 -29 -291 -71 -31
-164 -1 -205 64 -94 153 84 326 234 227z m-1032 -61 c30 -36 56 -69 58 -73 1
-4 -13 -25 -31 -47 -19 -21 -45 -52 -59 -68 l-25 -29 -89 37 -89 38 1 66 2 66
83 37 c46 21 86 38 89 38 3 0 30 -29 60 -65z m162 -186 c83 -93 83 -94 61
-121 l-18 -24 -100 43 c-55 24 -104 45 -110 47 -9 3 83 125 96 126 4 1 36 -32
71 -71z m305 -101 c39 -21 79 -72 88 -114 18 -87 -49 -185 -137 -198 -157 -24
-256 159 -150 279 45 51 135 66 199 33z m-393 -35 l108 -47 0 -65 0 -65 -158
-37 c-88 -21 -172 -40 -189 -43 -16 -3 -44 -10 -61 -14 -25 -7 -33 -5 -42 10
-18 28 -15 41 19 79 18 19 70 79 116 133 47 53 88 97 92 97 3 0 55 -22 115
-48z m-445 -228 c81 -32 122 -143 82 -222 -92 -181 -360 -85 -310 111 25 102
127 152 228 111z"/>
</g>
</svg>
